<?xml version="1.0" encoding="UTF-8"?>
<svg xmlns="http://www.w3.org/2000/svg" xmlns:xlink="http://www.w3.org/1999/xlink" width="64px" height="64px" viewBox="0 0 64 64" version="1.1">
<g id="surface1">
<path style=" stroke:none;fill-rule:nonzero;fill:rgb(90.980393%,43.529412%,17.647059%);fill-opacity:1;" d="M 62.058594 55.132812 L 1.78125 55.132812 C 0.753906 55.132812 -0.0703125 54.308594 -0.0703125 53.28125 L -0.0703125 16.6875 C -0.0703125 15.65625 0.753906 14.835938 1.78125 14.835938 L 62.058594 14.835938 C 63.085938 14.835938 63.910156 15.65625 63.910156 16.6875 L 63.910156 53.28125 C 63.910156 54.308594 63.085938 55.132812 62.058594 55.132812 Z M 62.058594 55.132812 "/>
<path style=" stroke:none;fill-rule:nonzero;fill:rgb(90.980393%,43.529412%,17.647059%);fill-opacity:1;" d="M 32.296875 59.109375 L 31.359375 59.109375 C 29.324219 59.109375 27.679688 57.460938 27.679688 55.429688 L 27.679688 54.492188 C 27.679688 52.457031 29.324219 50.8125 31.359375 50.8125 L 32.296875 50.8125 C 34.332031 50.8125 35.976562 52.457031 35.976562 54.492188 L 35.976562 55.429688 C 36 57.460938 34.332031 59.109375 32.296875 59.109375 Z M 32.296875 59.109375 "/>
<path style=" stroke:none;fill-rule:nonzero;fill:rgb(82.352942%,92.54902%,100%);fill-opacity:1;" d="M 28.320312 52.753906 L 1.941406 52.753906 L 1.941406 8.847656 L 27.929688 8.847656 C 30.078125 8.847656 31.839844 10.605469 31.839844 12.753906 L 31.839844 56.207031 C 31.839844 58.398438 31.792969 52.753906 28.320312 52.753906 Z M 28.320312 52.753906 "/>
<path style=" stroke:none;fill-rule:nonzero;fill:rgb(24.705882%,55.686277%,40.784314%);fill-opacity:1;" d="M 42.285156 64 L 39.496094 61.371094 L 36.6875 64 L 36.6875 50.789062 L 42.285156 50.789062 Z M 42.285156 64 "/>
<path style=" stroke:none;fill-rule:nonzero;fill:rgb(20.784314%,50.980395%,92.156863%);fill-opacity:1;" d="M 35.359375 52.753906 L 61.714844 52.753906 L 61.714844 8.847656 L 35.726562 8.847656 C 33.578125 8.847656 31.816406 10.605469 31.816406 12.753906 L 31.816406 56.207031 C 31.839844 58.398438 31.863281 52.753906 35.359375 52.753906 Z M 35.359375 52.753906 "/>
<path style=" stroke:none;fill-rule:nonzero;fill:rgb(24.705882%,55.686277%,40.784314%);fill-opacity:1;" d="M 13.714844 18.949219 C 13.714844 16.828125 11.996094 15.109375 9.875 15.109375 C 7.753906 15.109375 6.035156 16.828125 6.035156 18.949219 C 6.035156 21.070312 7.753906 22.789062 9.875 22.789062 C 11.996094 22.789062 13.714844 21.070312 13.714844 18.949219 Z M 13.714844 18.949219 "/>
<path style=" stroke:none;fill-rule:nonzero;fill:rgb(56.078434%,70.19608%,78.823531%);fill-opacity:1;" d="M 21.53125 17.667969 L 16.457031 17.667969 C 16.160156 17.667969 15.929688 17.441406 15.929688 17.144531 L 15.929688 16.34375 C 15.929688 16.046875 16.160156 15.816406 16.457031 15.816406 L 21.554688 15.816406 C 21.851562 15.816406 22.078125 16.046875 22.078125 16.34375 L 22.078125 17.144531 C 22.078125 17.417969 21.828125 17.667969 21.53125 17.667969 Z M 21.53125 17.667969 "/>
<path style=" stroke:none;fill-rule:nonzero;fill:rgb(56.078434%,70.19608%,78.823531%);fill-opacity:1;" d="M 24.9375 19.792969 L 16.296875 19.792969 C 16.089844 19.792969 15.910156 19.632812 15.910156 19.40625 L 15.910156 19.3125 C 15.910156 19.109375 16.070312 18.925781 16.296875 18.925781 L 24.9375 18.925781 C 25.144531 18.925781 25.324219 19.085938 25.324219 19.3125 L 25.324219 19.40625 C 25.324219 19.613281 25.144531 19.792969 24.9375 19.792969 Z M 24.9375 19.792969 "/>
<path style=" stroke:none;fill-rule:nonzero;fill:rgb(56.078434%,70.19608%,78.823531%);fill-opacity:1;" d="M 22.148438 21.234375 L 16.273438 21.234375 C 16.089844 21.234375 15.929688 21.074219 15.929688 20.890625 L 15.929688 20.800781 C 15.929688 20.617188 16.089844 20.457031 16.273438 20.457031 L 22.171875 20.457031 C 22.355469 20.457031 22.515625 20.617188 22.515625 20.800781 L 22.515625 20.890625 C 22.492188 21.097656 22.355469 21.234375 22.148438 21.234375 Z M 22.148438 21.234375 "/>
<path style=" stroke:none;fill-rule:nonzero;fill:rgb(56.078434%,70.19608%,78.823531%);fill-opacity:1;" d="M 24.664062 27.726562 L 7.453125 27.726562 C 7.085938 27.726562 6.8125 27.429688 6.8125 27.085938 L 6.8125 26.925781 C 6.8125 26.558594 7.109375 26.285156 7.453125 26.285156 L 24.664062 26.285156 C 25.027344 26.285156 25.304688 26.582031 25.304688 26.925781 L 25.304688 27.085938 C 25.324219 27.429688 25.027344 27.726562 24.664062 27.726562 Z M 24.664062 27.726562 "/>
<path style=" stroke:none;fill-rule:nonzero;fill:rgb(56.078434%,70.19608%,78.823531%);fill-opacity:1;" d="M 17.941406 29.828125 L 7.085938 29.828125 C 6.925781 29.828125 6.8125 29.691406 6.8125 29.554688 L 6.8125 29.484375 C 6.8125 29.324219 6.949219 29.210938 7.085938 29.210938 L 17.941406 29.210938 C 18.101562 29.210938 18.21875 29.347656 18.21875 29.484375 L 18.21875 29.554688 C 18.238281 29.691406 18.101562 29.828125 17.941406 29.828125 Z M 17.941406 29.828125 "/>
<path style=" stroke:none;fill-rule:nonzero;fill:rgb(56.078434%,70.19608%,78.823531%);fill-opacity:1;" d="M 17.941406 31.453125 L 7.085938 31.453125 C 6.925781 31.453125 6.8125 31.3125 6.8125 31.175781 L 6.8125 31.109375 C 6.8125 30.949219 6.949219 30.835938 7.085938 30.835938 L 17.941406 30.835938 C 18.101562 30.835938 18.21875 30.972656 18.21875 31.109375 L 18.21875 31.175781 C 18.238281 31.335938 18.101562 31.453125 17.941406 31.453125 Z M 17.941406 31.453125 "/>
<path style=" stroke:none;fill-rule:nonzero;fill:rgb(56.078434%,70.19608%,78.823531%);fill-opacity:1;" d="M 17.941406 33.28125 L 7.085938 33.28125 C 6.925781 33.28125 6.8125 33.144531 6.8125 33.003906 L 6.8125 32.914062 C 6.8125 32.753906 6.949219 32.640625 7.085938 32.640625 L 17.941406 32.640625 C 18.101562 32.640625 18.21875 32.777344 18.21875 32.914062 L 18.21875 32.984375 C 18.238281 33.144531 18.101562 33.28125 17.941406 33.28125 Z M 17.941406 33.28125 "/>
<path style=" stroke:none;fill-rule:nonzero;fill:rgb(97.647059%,84.313726%,31.37255%);fill-opacity:1;" d="M 55.929688 4.753906 C 55.929688 2.285156 54.035156 0.25 51.613281 0.0234375 C 51.472656 0 51.3125 0 51.152344 0 C 50.996094 0 50.855469 0 50.695312 0.0234375 C 48.296875 0.25 46.398438 2.285156 46.398438 4.753906 C 46.398438 5.921875 46.8125 6.972656 47.496094 7.792969 L 47.496094 18.125 L 51.152344 14.972656 L 54.8125 18.125 L 54.8125 7.816406 C 55.519531 6.996094 55.929688 5.921875 55.929688 4.753906 Z M 55.929688 4.753906 "/>
<path style=" stroke:none;fill-rule:nonzero;fill:rgb(9.803922%,25.490198%,40.784314%);fill-opacity:1;" d="M 52.867188 8.230469 L 50.925781 6.996094 L 48.800781 7.886719 L 49.371094 5.644531 L 47.863281 3.910156 L 50.148438 3.769531 L 51.335938 1.78125 L 52.183594 3.929688 L 54.445312 4.457031 L 52.664062 5.921875 Z M 52.867188 8.230469 "/>
</g>
</svg>
