<?xml version="1.0" encoding="UTF-8"?>
<svg xmlns="http://www.w3.org/2000/svg" xmlns:xlink="http://www.w3.org/1999/xlink" width="64px" height="64px" viewBox="0 0 64 64" version="1.1">
<g id="surface1">
<path style=" stroke:none;fill-rule:nonzero;fill:rgb(9.803922%,25.490198%,40.784314%);fill-opacity:1;" d="M 32 63.886719 C 31.175781 63.886719 30.515625 63.222656 30.515625 62.398438 L 30.515625 41.554688 C 30.515625 40.730469 31.175781 40.070312 32 40.070312 C 32.824219 40.070312 33.484375 40.730469 33.484375 41.554688 L 33.484375 62.398438 C 33.484375 63.222656 32.824219 63.886719 32 63.886719 Z M 32 63.886719 "/>
<path style=" stroke:none;fill-rule:nonzero;fill:rgb(9.803922%,25.490198%,40.784314%);fill-opacity:1;" d="M 44.664062 62.652344 C 43.910156 62.972656 43.039062 62.605469 42.71875 61.851562 L 34.742188 42.582031 C 34.421875 41.828125 34.789062 40.960938 35.542969 40.640625 C 36.296875 40.320312 37.164062 40.6875 37.484375 41.441406 L 45.460938 60.707031 C 45.78125 61.460938 45.417969 62.332031 44.664062 62.652344 Z M 44.664062 62.652344 "/>
<path style=" stroke:none;fill-rule:nonzero;fill:rgb(9.803922%,25.490198%,40.784314%);fill-opacity:1;" d="M 19.335938 62.652344 C 20.089844 62.972656 20.960938 62.605469 21.28125 61.851562 L 29.257812 42.582031 C 29.578125 41.828125 29.210938 40.960938 28.457031 40.640625 C 27.703125 40.320312 26.835938 40.6875 26.515625 41.441406 L 18.539062 60.707031 C 18.21875 61.460938 18.582031 62.332031 19.335938 62.652344 Z M 19.335938 62.652344 "/>
<path style=" stroke:none;fill-rule:nonzero;fill:rgb(82.352942%,92.54902%,100%);fill-opacity:1;" d="M 61.621094 43.886719 L 2.378906 43.886719 C 1.578125 43.886719 0.914062 43.222656 0.914062 42.421875 L 0.914062 6.261719 C 0.914062 5.460938 1.578125 4.800781 2.378906 4.800781 L 61.621094 4.800781 C 62.421875 4.800781 63.085938 5.460938 63.085938 6.261719 L 63.085938 42.398438 C 63.085938 43.222656 62.421875 43.886719 61.621094 43.886719 Z M 61.621094 43.886719 "/>
<path style=" stroke:none;fill-rule:nonzero;fill:rgb(9.803922%,25.490198%,40.784314%);fill-opacity:1;" d="M 61.621094 44.914062 L 2.378906 44.914062 C 1.074219 44.914062 0 43.703125 0 42.21875 L 0 6.46875 C 0 4.984375 1.074219 3.769531 2.378906 3.769531 L 61.621094 3.769531 C 62.925781 3.769531 64 4.984375 64 6.46875 L 64 42.21875 C 64 43.703125 62.925781 44.914062 61.621094 44.914062 Z M 2.378906 5.851562 C 2.078125 5.851562 1.828125 6.125 1.828125 6.46875 L 1.828125 42.21875 C 1.828125 42.558594 2.078125 42.835938 2.378906 42.835938 L 61.621094 42.835938 C 61.921875 42.835938 62.171875 42.558594 62.171875 42.21875 L 62.171875 6.46875 C 62.171875 6.125 61.921875 5.851562 61.621094 5.851562 Z M 2.378906 5.851562 "/>
<path style=" stroke:none;fill-rule:nonzero;fill:rgb(9.803922%,25.490198%,40.784314%);fill-opacity:1;" d="M 62.628906 6.835938 L 62.628906 5.460938 L 1.417969 5.460938 L 1.417969 6.148438 L 0.9375 6.148438 L 0.9375 43.292969 L 1.828125 43.292969 L 1.828125 43.75 L 62.171875 43.75 L 62.171875 42.195312 L 2.398438 42.195312 L 2.398438 6.835938 Z M 62.628906 6.835938 "/>
<path style=" stroke:none;fill-rule:nonzero;fill:rgb(9.803922%,25.490198%,40.784314%);fill-opacity:1;" d="M 61.667969 6.148438 L 63.0625 6.148438 L 63.0625 43.292969 L 61.667969 43.292969 Z M 61.667969 6.148438 "/>
<path style=" stroke:none;fill-rule:nonzero;fill:rgb(90.980393%,43.529412%,17.647059%);fill-opacity:1;" d="M 22.011719 20.136719 C 22.011719 15.667969 18.390625 12.046875 13.921875 12.046875 C 9.453125 12.046875 5.828125 15.667969 5.828125 20.136719 C 5.828125 24.605469 9.453125 28.230469 13.921875 28.230469 C 18.390625 28.230469 22.011719 24.605469 22.011719 20.136719 Z M 22.011719 20.136719 "/>
<path style=" stroke:none;fill-rule:nonzero;fill:rgb(97.647059%,84.313726%,31.37255%);fill-opacity:1;" d="M 5.828125 20.136719 C 5.828125 15.679688 9.441406 12.046875 13.921875 12.046875 L 13.921875 20.136719 Z M 5.828125 20.136719 "/>
<path style=" stroke:none;fill-rule:nonzero;fill:rgb(20.784314%,50.980395%,92.156863%);fill-opacity:1;" d="M 13.921875 20.136719 L 18.855469 26.539062 C 20.753906 25.050781 21.988281 22.742188 21.988281 20.136719 C 21.988281 15.679688 18.378906 12.046875 13.898438 12.046875 L 13.898438 20.136719 Z M 13.921875 20.136719 "/>
<path style=" stroke:none;fill-rule:nonzero;fill:rgb(35.686275%,63.137257%,95.686275%);fill-opacity:1;" d="M 26.332031 22.789062 L 32.386719 22.789062 L 32.386719 35.929688 L 26.332031 35.929688 Z M 26.332031 22.789062 "/>
<path style=" stroke:none;fill-rule:nonzero;fill:rgb(9.803922%,25.490198%,40.784314%);fill-opacity:1;" d="M 34.628906 29.644531 L 40.6875 29.644531 L 40.6875 35.929688 L 34.628906 35.929688 Z M 34.628906 29.644531 "/>
<path style=" stroke:none;fill-rule:nonzero;fill:rgb(24.705882%,55.686277%,40.784314%);fill-opacity:1;" d="M 42.558594 27.359375 L 48.617188 27.359375 L 48.617188 35.929688 L 42.558594 35.929688 Z M 42.558594 27.359375 "/>
<path style=" stroke:none;fill-rule:nonzero;fill:rgb(35.686275%,63.137257%,95.686275%);fill-opacity:1;" d="M 50.695312 25.074219 L 56.753906 25.074219 L 56.753906 35.929688 L 50.695312 35.929688 Z M 50.695312 25.074219 "/>
<path style=" stroke:none;fill-rule:nonzero;fill:rgb(35.686275%,63.137257%,95.686275%);fill-opacity:1;" d="M 26.332031 13.144531 L 56.730469 13.144531 L 56.730469 14.171875 L 26.332031 14.171875 Z M 26.332031 13.144531 "/>
<path style=" stroke:none;fill-rule:nonzero;fill:rgb(35.686275%,63.137257%,95.686275%);fill-opacity:1;" d="M 26.332031 15.429688 L 52.570312 15.429688 L 52.570312 16.320312 L 26.332031 16.320312 Z M 26.332031 15.429688 "/>
<path style=" stroke:none;fill-rule:nonzero;fill:rgb(35.686275%,63.137257%,95.686275%);fill-opacity:1;" d="M 26.332031 17.714844 L 48.59375 17.714844 L 48.59375 18.515625 L 26.332031 18.515625 Z M 26.332031 17.714844 "/>
<path style=" stroke:none;fill-rule:nonzero;fill:rgb(97.647059%,84.313726%,31.37255%);fill-opacity:1;" d="M 58.058594 4.984375 C 58.058594 2.230469 55.828125 0 53.074219 0 C 50.324219 0 48.089844 2.230469 48.089844 4.984375 C 48.089844 7.734375 50.324219 9.964844 53.074219 9.964844 C 55.828125 9.964844 58.058594 7.734375 58.058594 4.984375 Z M 58.058594 4.984375 "/>
<path style=" stroke:none;fill-rule:nonzero;fill:rgb(9.803922%,25.490198%,40.784314%);fill-opacity:1;" d="M 52.160156 7.015625 L 50.308594 5.164062 C 50.195312 5.050781 50.195312 4.867188 50.308594 4.753906 L 50.71875 4.34375 C 50.835938 4.230469 51.015625 4.230469 51.132812 4.34375 L 52.386719 5.601562 L 55.0625 2.925781 C 55.175781 2.8125 55.359375 2.8125 55.472656 2.925781 L 55.886719 3.335938 C 56 3.453125 56 3.632812 55.886719 3.75 L 52.570312 7.015625 C 52.457031 7.132812 52.273438 7.132812 52.160156 7.015625 Z M 52.160156 7.015625 "/>
</g>
</svg>
